<?xml version="1.0" encoding="UTF-8" standalone="no"?>
<svg
   xmlns:dc="http://purl.org/dc/elements/1.1/"
   xmlns:cc="http://creativecommons.org/ns#"
   xmlns:rdf="http://www.w3.org/1999/02/22-rdf-syntax-ns#"
   xmlns:svg="http://www.w3.org/2000/svg"
   xmlns="http://www.w3.org/2000/svg"
   viewBox="0 0 584.01331 186.60001"
   height="186.60001"
   width="584.01331"
   xml:space="preserve"
   id="svg2"
   version="1.1"><metadata
     id="metadata8"><rdf:RDF><cc:Work
         rdf:about=""><dc:format>image/svg+xml</dc:format><dc:type
           rdf:resource="http://purl.org/dc/dcmitype/StillImage" /></cc:Work></rdf:RDF></metadata><defs
     id="defs6" /><g
     transform="matrix(1.3333333,0,0,-1.3333333,0,186.6)"
     id="g10"><g
       transform="scale(0.1)"
       id="g12"><path
         id="path14"
         style="fill:#ffffff;fill-opacity:1;fill-rule:nonzero;stroke:none"
         d="m 1538.73,285.43 c 0,-97.828 -64.99,-147.399 -150.08,-147.399 -90.45,0 -152.76,36.168 -152.76,140.028 V 501.84 l -49.58,15.41 4.69,21.445 h 151.42 l 5.36,-21.445 -50.25,-15.41 V 287.449 c 0,-76.39 32.16,-111.898 96.48,-111.898 62.32,0 105.19,35.508 105.19,116.578 V 501.84 l -50.24,15.41 5.36,21.445 h 129.3 l 5.36,-21.445 -50.25,-15.41 V 285.43" /><path
         id="path16"
         style="fill:#ffffff;fill-opacity:1;fill-rule:nonzero;stroke:none"
         d="m 1883.77,164.16 -8.71,-19.43 h -128.63 v 18.75 l 31.48,11.399 v 165.5 c 0,42.871 -26.8,51.582 -49.58,51.582 -26.8,0 -52.93,-13.402 -68.34,-26.801 V 176.891 l 46.9,-12.731 -8.71,-19.43 h -128.64 v 18.75 l 31.5,10.719 V 369.18 l -32.17,36.175 v 7.375 l 80.4,30.829 h 10.05 l -2.02,-56.95 h 2.69 c 26.81,44.215 67.67,56.95 97.82,56.95 38.86,0 79.07,-23.457 79.07,-91.797 V 176.891 l 46.89,-12.731" /><path
         id="path18"
         style="fill:#ffffff;fill-opacity:1;fill-rule:nonzero;stroke:none"
         d="m 1951.43,572.867 c 23.45,0 41.54,-18.097 41.54,-41.543 0,-23.449 -18.09,-41.535 -41.54,-41.535 -23.45,0 -41.55,18.086 -41.55,41.535 0,23.446 18.1,41.543 41.55,41.543 z m 77.05,-408.707 -8.71,-19.43 h -128.64 v 18.75 l 31.49,10.719 V 369.18 l -32.16,36.175 v 7.375 l 80.4,30.829 h 10.72 V 176.891 l 46.9,-12.731" /><path
         id="path20"
         style="fill:#ffffff;fill-opacity:1;fill-rule:nonzero;stroke:none"
         d="m 2231.48,402.68 -44.21,14.746 4.01,19.426 h 108.54 l 4.03,-19.426 -30.82,-12.735 -101.85,-259.961 h -33.5 l -106.53,256.614 -28.82,18.094 4.7,17.414 h 123.28 l 4.69,-20.098 -42.88,-10.723 46.9,-117.922 c 16.08,-40.187 24.12,-81.07 24.12,-81.07 h 2.68 c 0,0 8.71,40.191 24.79,81.731 l 40.87,113.91" /><path
         id="path22"
         style="fill:#ffffff;fill-opacity:1;fill-rule:nonzero;stroke:none"
         d="m 2342.03,332.332 h 122.61 c 0.67,4.688 0.67,13.398 0.67,18.09 0,42.207 -16.76,64.32 -51.6,64.32 -32.15,0 -62.3,-25.461 -71.68,-82.41 z m 88.44,-150.754 c 32.83,0 56.28,8.711 83.08,27.473 l 8.72,-15.41 c -24.13,-36.86 -58.31,-55.61 -109.89,-55.61 -71.7,0 -128.65,49.571 -128.65,150.078 0,99.821 62.99,155.45 138.03,155.45 60.3,0 103.85,-37.528 103.85,-105.2 0,-10.718 -0.67,-22.109 -3.34,-34.839 h -182.25 c 0,-77.051 34.16,-121.942 90.45,-121.942" /><path
         id="path24"
         style="fill:#ffffff;fill-opacity:1;fill-rule:nonzero;stroke:none"
         d="m 2687.07,164.832 -8.71,-20.102 h -142.04 v 18.75 l 31.49,10.719 V 369.18 l -32.17,36.175 v 7.375 l 80.41,30.829 h 10.04 l -2,-69.02 h 2.68 c 16.75,37.516 46.9,69.684 85.09,69.684 31.5,0 49.59,-17.422 49.59,-43.555 0,-26.797 -18.09,-40.867 -38.87,-40.867 -24.12,0 -38.19,17.418 -38.19,40.867 -22.78,-8.707 -40.87,-28.809 -57.62,-53.59 V 176.891 l 60.3,-12.059" /><path
         id="path26"
         style="fill:#ffffff;fill-opacity:1;fill-rule:nonzero;stroke:none"
         d="m 2778.86,239.199 c 28.13,-60.308 54.27,-75.719 90.46,-75.719 30.13,0 50.24,10.719 50.24,42.219 0,25.461 -14.74,39.531 -48.24,50.93 l -38.19,13.391 c -40.2,14.07 -66.33,38.859 -66.33,88.441 0,57.617 41.54,85.098 97.82,85.098 13.4,0 40.2,-4.696 53.6,-12.071 l 32.16,11.387 5.36,-85.766 -14.07,-4.679 c -28.81,49.586 -52.26,63.648 -81.06,63.648 -28.15,0 -45.57,-16.074 -45.57,-40.199 0,-24.117 12.06,-39.527 44.88,-50.91 l 38.21,-12.739 c 44.21,-15.41 71.67,-38.871 71.67,-89.781 0,-59.629 -44.88,-84.418 -104.51,-84.418 -27.48,0 -50.25,8.028 -66.33,15.41 l -30.15,-15.41 -6.04,96.481 16.09,4.687" /><path
         id="path28"
         style="fill:#ffffff;fill-opacity:1;fill-rule:nonzero;stroke:none"
         d="m 3048.18,572.867 c 23.46,0 41.55,-18.097 41.55,-41.543 0,-23.449 -18.09,-41.535 -41.55,-41.535 -23.44,0 -41.54,18.086 -41.54,41.535 0,23.446 18.1,41.543 41.54,41.543 z m 77.05,-408.707 -8.71,-19.43 h -128.63 v 18.75 l 31.49,10.719 V 369.18 l -32.16,36.175 v 7.375 l 80.4,30.829 h 10.72 V 176.891 l 46.89,-12.731" /><path
         id="path30"
         style="fill:#ffffff;fill-opacity:1;fill-rule:nonzero;stroke:none"
         d="m 3110.49,424.125 83.75,92.461 h 13.4 v -79.734 h 97.82 l -4.7,-31.497 h -93.12 V 231.16 c 0,-37.519 16.07,-52.93 44.22,-52.93 18.77,0 34.18,4.02 54.27,14.071 l 6.7,-16.75 c -22.11,-24.121 -47.58,-37.52 -91.12,-37.52 -44.89,0 -73.04,23.438 -73.04,83.078 v 184.246 h -38.18 v 18.77" /><path
         id="path32"
         style="fill:#ffffff;fill-opacity:1;fill-rule:nonzero;stroke:none"
         d="m 3306.11,401.344 -28.81,18.094 4.69,17.414 h 123.96 l 4.68,-20.098 -42.88,-10.723 47.58,-125.972 c 18.75,-50.239 22.11,-85.079 22.11,-85.079 h 2.68 c 0,0 11.38,42.879 25.46,85.758 l 39.53,121.942 -44.23,14.746 4.02,19.426 h 107.21 l 4.02,-19.426 -30.82,-12.735 -93.13,-253.929 C 3409.96,36.1914 3374.45,0 3319.51,0 c -34.84,0 -53.59,20.1016 -53.59,45.5703 0,24.1094 14.73,38.8516 38.18,38.8516 20.77,0 34.17,-14.7422 34.17,-34.1602 0,-10.0625 -3.35,-18.1015 -6.7,-22.7812 26.81,0 61.64,48.9101 80.4,107.1915 l -105.86,266.672" /><path
         id="path34"
         style="fill:#ffffff;fill-opacity:1;fill-rule:nonzero;stroke:none"
         d="m 555.715,397.828 -12.961,6.426 -12.559,-6.223 -0.898,-26.07 -5.567,-160.211 h 38.067 l -5.234,160.09 -0.848,25.988" /><path
         id="path36"
         style="fill:#ffffff;fill-opacity:1;fill-rule:nonzero;stroke:none"
         d="m 567.285,719.57 19.5,-3.968 -41.922,224.207 h -4.211 l -41.922,-224.207 19.5,3.968 v 0 L 484.512,558.422 v 0 0 l 25.793,5.254 -35.461,-169.446 v 0 l -0.008,-0.05 67.918,27.398 67.93,-27.398 -0.008,0.05 v 0 l -0.012,0.051 -35.449,169.387 v 0 l 25.801,-5.254 -33.731,161.156 v 0" /><path
         id="path38"
         style="fill:#ffffff;fill-opacity:1;fill-rule:nonzero;stroke:none"
         d="m 633.113,524.926 c 12.16,-5.77 24.563,-10.879 48.078,-10.879 21.582,0 33.797,4.297 45.059,9.465 2.012,0.918 3.992,1.863 5.996,2.832 0.391,0.183 0.801,0.379 1.199,0.566 v -17.695 c -2.312,-1.086 -4.707,-2.129 -7.195,-3.137 -11.102,-4.492 -24.465,-8.027 -45.059,-8.027 -22.492,0 -36.367,4.219 -48.078,9.289 z m 100.332,-80.703 c -2.312,-1.075 -4.707,-2.129 -7.195,-3.145 -11.102,-4.48 -24.465,-8.015 -45.059,-8.015 -15.793,0 -27.324,2.089 -36.855,5.078 v 16.941 c 9.316,-3.504 20.344,-6.023 36.855,-6.023 21.582,0 33.797,4.296 45.059,9.461 2.012,0.918 3.992,1.867 5.996,2.832 0.391,0.187 0.801,0.382 1.199,0.566 z m 0,-64.871 c -2.312,-1.071 -4.707,-2.133 -7.195,-3.133 -11.102,-4.489 -24.465,-8.028 -45.059,-8.028 -8.203,0 -15.246,0.571 -21.472,1.539 v 16.231 c 6.074,-1.109 13.054,-1.781 21.472,-1.781 21.582,0 33.797,4.3 45.059,9.468 2.012,0.93 3.992,1.872 5.996,2.832 0.391,0.192 0.801,0.379 1.199,0.579 z m -90.965,-24.512 -71.992,35.672 1.856,-24.203 1.609,-21.039 c 27.883,-0.282 42.297,-7.161 56.203,-13.84 13.164,-6.321 25.606,-12.289 51.035,-12.289 23.313,0 35.704,5.019 47.754,10.711 1.094,0.527 2.2,1.046 3.301,1.578 5.09,2.441 10.293,4.898 16.172,7.07 v 222.355 l 15.996,-12.031 V 334.762 l 14.277,-11.942 c 0.02,0.02 0.047,0.051 0.079,0.078 v 233.993 l -28.36,21.347 c -0.449,-0.187 -0.879,-0.383 -1.308,-0.578 -2.559,-1.121 -5.071,-2.305 -7.625,-3.535 -0.278,-0.125 -0.539,-0.262 -0.813,-0.391 -4.355,-2.089 -8.887,-4.257 -13.965,-6.257 -0.156,-0.059 -0.301,-0.118 -0.449,-0.168 -11.074,-4.317 -24.805,-7.782 -45.039,-7.782 -29.863,0 -45.586,7.547 -59.453,14.207 -0.254,0.118 -0.508,0.246 -0.762,0.364 l 9.758,-45.051 -26.75,5.441 33.516,-156.519 4.96,-23.129" /><path
         id="path40"
         style="fill:#ffffff;fill-opacity:1;fill-rule:nonzero;stroke:none"
         d="m 404.316,303.141 c -25.07,0 -39.445,5.238 -52.031,11.058 -2.012,0.93 -3.984,1.871 -5.937,2.813 -4.602,2.199 -9.129,4.347 -14.102,6.226 l -2.644,-2.218 -0.383,-0.321 -0.164,-0.14 -9.543,-7.981 c 3.176,-0.93 6.113,-2.066 9.082,-3.367 0.332,-0.141 0.664,-0.289 1.008,-0.441 2.207,-0.989 4.453,-2.059 6.863,-3.219 0.871,-0.422 1.758,-0.84 2.644,-1.262 15.129,-7.211 32.832,-14.848 65.207,-14.848 34.278,0 52.122,8.559 67.872,16.118 11.25,5.402 19.628,9.41 36.906,9.961 l 0.769,10.308 0.254,3.422 c -23.269,-0.488 -35.234,-6.199 -47.832,-12.238 -14.199,-6.821 -28.887,-13.871 -57.969,-13.871" /><path
         id="path42"
         style="fill:#ffffff;fill-opacity:1;fill-rule:nonzero;stroke:none"
         d="m 739.172,317.012 c -1.965,-0.942 -3.93,-1.883 -5.942,-2.813 -12.585,-5.82 -26.96,-11.058 -52.039,-11.058 -29.062,0 -43.757,7.05 -57.961,13.871 -12.632,6.058 -24.636,11.789 -48.054,12.238 l 0.265,-3.422 0.789,-10.297 c 17.415,-0.531 25.801,-4.551 37.098,-9.972 15.754,-7.559 33.606,-16.118 67.863,-16.118 32.375,0 50.079,7.637 65.215,14.848 0.891,0.422 1.77,0.84 2.637,1.262 2.07,0.988 3.992,1.91 5.898,2.777 0.325,0.141 0.645,0.301 0.977,0.442 3.312,1.492 6.555,2.769 10.078,3.808 l -12.723,10.66 c -4.972,-1.879 -9.503,-4.027 -14.101,-6.226" /><path
         id="path44"
         style="fill:#ffffff;fill-opacity:1;fill-rule:nonzero;stroke:none"
         d="m 441.184,438.141 c -9.536,-2.989 -21.067,-5.078 -36.868,-5.078 -20.586,0 -33.945,3.535 -45.046,8.015 -2.493,1.016 -4.883,2.07 -7.2,3.145 v 17.695 c 0.391,-0.184 0.801,-0.379 1.203,-0.566 2,-0.965 3.985,-1.914 5.997,-2.832 11.257,-5.165 23.472,-9.461 45.046,-9.461 16.524,0 27.547,2.519 36.868,6.023 z M 425.801,369.73 c -6.231,-0.968 -13.274,-1.539 -21.485,-1.539 -20.586,0 -33.945,3.539 -45.046,8.028 -2.493,1 -4.883,2.062 -7.2,3.133 v 17.707 c 0.391,-0.2 0.801,-0.387 1.203,-0.579 2,-0.96 3.985,-1.902 5.997,-2.832 11.257,-5.168 23.472,-9.468 45.046,-9.468 8.426,0 15.411,0.672 21.485,1.781 z M 352.07,526.91 c 0.391,-0.187 0.801,-0.383 1.203,-0.566 2,-0.969 3.985,-1.914 5.997,-2.832 11.257,-5.168 23.472,-9.465 45.046,-9.465 23.516,0 35.926,5.109 48.086,10.879 V 507.34 c -11.718,-5.07 -25.586,-9.289 -48.086,-9.289 -20.586,0 -33.945,3.535 -45.046,8.027 -2.493,1.008 -4.883,2.051 -7.2,3.137 z m 129.446,7.578 -26.75,-5.441 0.031,0.09 h -0.012 l 9.727,44.961 c -0.242,-0.129 -0.489,-0.246 -0.742,-0.364 -13.875,-6.66 -29.59,-14.207 -59.454,-14.207 -20.234,0 -33.964,3.477 -45.046,7.782 -0.149,0.058 -0.305,0.109 -0.454,0.168 -5.078,2 -9.605,4.168 -13.953,6.257 -0.918,0.442 -1.836,0.879 -2.734,1.309 -1.902,0.91 -3.801,1.777 -5.711,2.617 -0.441,0.195 -0.871,0.391 -1.301,0.578 L 306.746,556.891 V 405.27 393.879 322.891 c 0.031,-0.032 0.051,-0.051 0.07,-0.082 l 14.278,11.953 v 214.062 l 15.324,11.524 0.672,0.507 V 338.5 c 5.89,-2.172 11.094,-4.629 16.183,-7.07 1.102,-0.532 2.196,-1.051 3.309,-1.578 12.031,-5.692 24.434,-10.711 47.734,-10.711 25.43,0 37.879,5.968 51.055,12.289 13.859,6.66 28.223,13.519 55.945,13.84 l 1.575,20.949 1.816,24.133 -71.648,-35.5 38.457,179.636" /><path
         id="path46"
         style="fill:#ffffff;fill-opacity:1;fill-rule:nonzero;stroke:none"
         d="M 1049.18,626.832 C 1023.93,532.055 977.727,441.02 911.855,356.25 830.957,252.16 720.09,157.48 582.344,74.8203 l -39.59,-23.7695 -39.59,23.7695 C 365.41,157.48 254.551,252.172 173.652,356.25 107.781,441.02 61.582,532.055 36.3281,626.832 13,714.387 9.66797,812.777 26.6992,911.379 c 8.0469,46.601 19.4844,84.273 34.961,115.191 10.3125,20.58 22.539,38.02 36.4062,52.14 0.2852,0.31 93.9726,91.76 93.9726,91.76 h 0.012 l 166.711,162.58 c 37.011,34.02 84.07,50.44 144.129,50.44 71.015,0 111.914,-28.29 144.777,-51.03 20.879,-14.45 37.371,-25.86 55.73,-25.86 h 73.497 l 94.035,-66.79 -52.102,-111.53 h -25.223 l 7.84,16.79 h -65.742 l -7.82,-16.76 48.269,-52.15 c 28.465,29.47 67.793,45.64 111.368,45.64 32.5,0 63.156,-11.27 88.632,-32.57 18.621,-15.57 34.668,-36.66 47.698,-62.66 15.48,-30.918 26.91,-68.59 34.96,-115.191 17.03,-98.602 13.7,-196.992 -9.63,-284.547 z m 25.39,287.266 c -8.32,48.164 -20.23,87.292 -36.43,119.632 -14.02,27.98 -31.42,50.78 -51.734,67.77 -28.398,23.74 -62.59,36.29 -98.886,36.29 -17.266,0 -34.004,-2.35 -49.825,-6.89 l 53.36,114.22 -109.063,77.47 h -78.594 c -13.359,0 -28.046,10.16 -46.628,23.02 -32.864,22.73 -77.864,53.87 -153.879,53.87 -64.246,0 -114.93,-17.88 -154.95,-54.66 0,0 -259.8551,-253.49 -261.2691,-254.9 H 86.6602 C 71.5625,1074.54 58.3398,1055.64 47.3633,1033.73 31.1719,1001.39 19.2578,962.262 10.9375,914.098 -6.48438,813.242 -3.04688,712.48 20.8789,622.715 46.6797,525.855 93.8398,432.906 161.035,346.449 243.152,240.789 355.488,144.781 494.934,61.1094 l 47.82,-28.711 47.82,28.711 C 730.02,144.789 842.363,240.789 924.473,346.449 c 67.199,86.457 114.357,179.414 140.157,276.266 23.91,89.765 27.35,190.523 9.94,291.383" /><path
         id="path48"
         style="fill:#ffffff;fill-opacity:1;fill-rule:nonzero;stroke:none"
         d="m 482.5,1335.88 c 0.754,0.07 1.516,0.17 2.273,0.23 13.079,1.05 26.465,0.94 39.758,-0.82 13.282,-1.77 26.524,-5.14 39.055,-10.21 12.566,-5.03 24.402,-11.54 35.562,-18.44 12.786,-7.91 25,-16.06 37.278,-22.8 v -27.03 c -17.891,9.96 -33.113,22.58 -48.184,33.47 -10.176,7.41 -20.469,14.13 -31.426,19.53 -10.925,5.43 -22.539,9.37 -34.57,11.93 -12.051,2.56 -24.48,3.65 -37.078,3.6 -0.891,0 -1.789,-0.05 -2.668,-0.05 z m 210.48,-74 h 30.731 v -11.7 c -14.746,-2.47 -18.652,-16.95 -19.102,-18.86 -0.039,-0.13 -0.046,-0.21 -0.046,-0.21 H 692.98 Z m 82.118,-11.97 c 6.816,0 12.336,-5.52 12.336,-12.34 0,-6.81 -5.52,-12.34 -12.336,-12.34 -6.817,0 -12.344,5.53 -12.344,12.34 0,6.82 5.527,12.34 12.344,12.34 z M 306.746,1076.02 h 256.809 l -27.078,27.09 h -62.383 l 13.523,18.03 c 10.488,13.97 17.149,30.92 18.781,48.59 0.223,2.22 0.332,4.43 0.426,6.66 l -0.164,6.67 -0.058,3.34 -0.418,3.31 -0.832,6.65 c -1.836,8.71 -4.305,17.39 -8.34,25.46 -4.071,7.98 -8.828,15.8 -15.008,22.44 l -2.219,2.59 -2.461,2.35 c -1.66,1.55 -3.242,3.2 -4.961,4.69 -3.593,2.77 -7.031,5.8 -10.984,8.11 -15.246,10.17 -33.547,15.39 -52.043,16.16 v 4.56 6.51 c 4.562,0.05 9.141,-0.2 13.711,-0.66 15.937,-1.6 31.687,-6.32 45.625,-14.61 4.629,-2.43 8.738,-5.64 13.008,-8.64 2.058,-1.6 3.972,-3.38 5.968,-5.07 l 2.957,-2.58 2.715,-2.83 c 7.5,-7.34 13.528,-16.07 18.743,-25.21 5.183,-9.22 8.679,-19.28 11.335,-29.55 l 1.407,-7.83 0.683,-3.93 0.305,-3.98 0.574,-7.96 c 0.02,-2.66 0.031,-5.33 -0.105,-7.99 -0.61,-14.55 -4.121,-29 -10.09,-42.43 h 29.766 l 49.941,-49.94 h 86.445 l -43.027,50.17 h 13.601 l 58.469,-50.17 h 33.77 l -44.461,48.04 16.16,34.59 c -2.981,2.29 -5.781,4.81 -8.262,7.58 -5.676,6.32 -9.902,13.79 -12.453,21.63 -2.527,7.74 -3.406,15.81 -3.016,23.63 h 11.465 c 1.004,-13.17 6.797,-25.29 16.094,-33.11 7.402,-6.38 16.746,-9.8 26.231,-10.45 h 65.234 l 30.019,64.28 -72.546,51.54 h -66.204 c -25.488,0 -45.527,13.86 -68.73,29.92 -31.824,22.01 -67.891,46.97 -131.777,46.97 -80.34,0 -116.524,-33.26 -128.418,-44.19 L 224.785,1170.47 h 81.961 v -94.45" /><path
         id="path50"
         style="fill:#ffffff;fill-opacity:1;fill-rule:nonzero;stroke:none"
         d="m 661.816,702.449 v 13.367 h 23.133 v -55.023 h -15.484 v 41.656 z m 69.493,-0.539 c 0,11.016 9.843,16.028 19.004,16.028 9.152,0 19.003,-5.012 19.003,-16.028 0,-5.262 -2.851,-9.933 -7.253,-12.16 6.035,-2.625 9.46,-7.687 9.46,-14.129 0,-11.012 -10.937,-16.953 -21.21,-16.953 -10.274,0 -21.211,5.941 -21.211,16.953 0,6.442 3.418,11.504 9.453,14.129 -4.395,2.227 -7.246,6.898 -7.246,12.16 z m 107.839,-2.676 c 11.653,0 17.942,-10.089 17.942,-19.578 0,-14.418 -12.317,-20.988 -23.75,-20.988 -6.172,0 -11.914,1.742 -15.735,4.773 -4.609,3.844 -7.457,9.7 -7.457,15.297 0,8.524 4.754,16.532 8.739,21.742 l 11.718,15.336 h 17.84 l -14.558,-17.339 c 1.738,0.515 3.429,0.757 5.261,0.757 z m 55.95,2.676 c 0,11.016 9.843,16.028 19.004,16.028 9.152,0 19.003,-5.012 19.003,-16.028 0,-5.262 -2.851,-9.933 -7.253,-12.16 6.035,-2.625 9.453,-7.687 9.453,-14.129 0,-11.012 -10.93,-16.953 -21.203,-16.953 -10.286,0 -21.211,5.941 -21.211,16.953 0,6.442 3.418,11.504 9.453,14.129 -4.403,2.227 -7.246,6.898 -7.246,12.16 z m 117.422,34.508 c -0.13,-1.5 -0.3,-2.98 -0.44,-4.477 -0.09,-1.007 -0.15,-2.035 -0.24,-3.043 l -0.05,0.004 c -0.72,-7.297 -1.53,-14.562 -2.5,-21.757 l -20.54,20.82 -81.68,82.816 -45.488,-33.422 -71.367,72.079 -71.36,-72.079 -45.562,33.485 -69.133,-68.563 12.754,-56.136 v 0 -0.008 l -21.094,4.301 19.231,-88.852 c 6.179,-2.266 11.512,-4.813 16.59,-7.254 13.371,-6.418 24.914,-11.953 49.57,-11.953 24.648,0 36.191,5.535 49.551,11.953 13.886,6.66 29.597,14.207 59.453,14.207 29.851,0 45.578,-7.547 59.453,-14.207 13.359,-6.418 24.902,-11.953 49.551,-11.953 24.648,0 36.191,5.535 49.551,11.953 3.339,1.602 6.816,3.231 10.5,4.805 0.007,0.019 0.007,0.027 0.007,0.039 0.254,0.105 0.539,0.203 0.801,0.312 0.418,0.184 0.813,0.371 1.25,0.547 l 0.02,-0.039 c 6.906,2.813 14.785,5.356 24.707,6.914 -2.422,-7.402 -5.039,-14.765 -7.754,-22.109 l 0.078,-0.031 c -13.984,-37.938 -31.777,-75.262 -53.184,-111.641 -8.191,-13.906 -16.953,-27.664 -26.191,-41.277 -0.359,-0.539 -0.731,-1.086 -1.094,-1.622 -4.355,-6.378 -8.816,-12.726 -13.406,-19.042 -0.566,-0.782 -1.145,-1.563 -1.723,-2.344 -4.539,-6.203 -9.168,-12.383 -13.933,-18.524 -0.098,-0.14 -0.203,-0.281 -0.313,-0.41 C 791.824,291.199 686.035,201 554.121,121.84 l -11.367,-6.82 -11.367,6.82 C 399.473,201 293.684,291.199 216.965,389.91 c -3.156,4.07 -6.262,8.149 -9.328,12.254 -1.074,1.445 -2.129,2.899 -3.203,4.356 -1.946,2.636 -3.887,5.273 -5.789,7.918 -1.301,1.808 -2.571,3.613 -3.84,5.421 -1.621,2.293 -3.242,4.59 -4.825,6.895 -1.394,2.012 -2.761,4.031 -4.128,6.043 -1.418,2.09 -2.805,4.172 -4.192,6.262 -1.445,2.175 -2.871,4.355 -4.297,6.531 -1.25,1.933 -2.48,3.879 -3.711,5.812 -1.464,2.305 -2.929,4.61 -4.367,6.914 -1.109,1.797 -2.207,3.602 -3.308,5.411 -1.485,2.441 -2.969,4.882 -4.422,7.332 -0.93,1.562 -1.828,3.136 -2.746,4.699 -20.157,34.558 -37.071,69.949 -50.528,105.906 l 0.059,0.02 c -3.137,8.379 -6.121,16.777 -8.8869,25.226 9.9219,-1.558 17.8129,-4.101 24.7269,-6.914 l 0.019,0.039 c 0.481,-0.195 0.899,-0.402 1.367,-0.597 0.215,-0.086 0.45,-0.176 0.664,-0.262 0,-0.012 0,-0.02 0.008,-0.031 3.684,-1.582 7.18,-3.211 10.508,-4.813 13.371,-6.418 24.914,-11.953 49.555,-11.953 24.656,0 36.199,5.535 49.558,11.953 13.868,6.66 29.59,14.207 59.446,14.207 29.851,0 45.574,-7.547 59.453,-14.207 13.367,-6.418 24.91,-11.953 49.558,-11.953 24.649,0 36.204,5.535 49.563,11.953 5.074,2.441 10.418,4.988 16.59,7.254 l 10.39,47.984 c -6.875,-2.187 -12.656,-4.953 -18.574,-7.793 -14.199,-6.82 -28.887,-13.867 -57.969,-13.867 -29.074,0 -43.757,7.047 -57.968,13.867 -13.172,6.325 -25.606,12.293 -51.043,12.293 -25.434,0 -37.871,-5.968 -51.035,-12.293 -14.211,-6.816 -28.899,-13.867 -57.969,-13.867 -29.074,0 -43.75,7.047 -57.961,13.867 -5.723,2.75 -11.301,5.395 -17.793,7.536 -1.516,0.496 -3.086,0.964 -4.707,1.402 -0.156,0.039 -0.293,0.082 -0.442,0.121 -1.511,0.394 -3.082,0.75 -4.714,1.09 -0.672,0.14 -1.4067,0.258 -2.1098,0.383 -0.9961,0.187 -2.0195,0.363 -3.0742,0.511 -2.9023,0.434 -5.9766,0.778 -9.3359,0.985 -1.2891,5.355 -2.4922,10.746 -3.625,16.179 5.0976,-0.156 9.6875,-0.558 13.9257,-1.132 l 0.0118,0.019 c 0.7304,-0.101 1.4062,-0.234 2.1172,-0.348 1.125,-0.168 2.2462,-0.335 3.3082,-0.535 0.969,-0.175 1.887,-0.375 2.817,-0.57 0.601,-0.129 1.25,-0.238 1.844,-0.375 0,-0.012 0,-0.031 0,-0.031 11.699,-2.699 20.339,-6.797 28.71,-10.813 13.165,-6.32 25.606,-12.293 51.028,-12.293 25.437,0 37.879,5.973 51.043,12.293 14.199,6.821 28.886,13.867 57.961,13.867 29.07,0 43.758,-7.054 57.968,-13.867 13.172,-6.32 25.614,-12.293 51.043,-12.293 25.43,0 37.879,5.973 51.055,12.293 8.555,4.114 17.324,8.297 29.297,10.985 l 5.027,23.254 -21.101,-4.301 5.011,22.039 c -3.312,-1.414 -6.515,-2.949 -9.835,-4.539 -13.868,-6.66 -29.59,-14.207 -59.454,-14.207 -29.843,0 -45.578,7.547 -59.453,14.207 -4.648,2.23 -9.082,4.351 -13.925,6.172 -7.754,2.925 -16.583,5.062 -29.024,5.621 -1.394,0.062 -2.844,0.105 -4.336,0.129 -0.762,0.011 -1.492,0.031 -2.273,0.031 -0.801,0 -1.555,-0.02 -2.336,-0.031 -1.399,-0.024 -2.766,-0.063 -4.082,-0.121 -13.172,-0.571 -22.305,-2.903 -30.391,-6.075 -4.387,-1.715 -8.476,-3.675 -12.742,-5.726 -13.879,-6.66 -29.602,-14.207 -59.453,-14.207 -29.856,0 -45.567,7.547 -59.446,14.207 -8.835,4.246 -16.906,8.093 -28.4644,10.218 v -0.003 c -2.9101,0.539 -6.0468,0.961 -9.4648,1.261 -0.1758,0.016 -0.3711,0.028 -0.5547,0.043 -1.418,0.114 -2.8906,0.203 -4.4063,0.274 -0.3906,0.019 -0.7812,0.039 -1.1796,0.054 -1.7579,0.063 -3.5743,0.106 -5.5,0.106 -0.7422,0 -1.4336,-0.02 -2.1485,-0.027 -0.3125,2.527 -0.4961,5.105 -0.7695,7.652 l -0.1289,-0.016 c -0.3594,3.399 -0.5938,6.824 -0.8985,10.239 -0.1445,1.652 -0.3593,3.277 -0.4882,4.937 0.0195,0 0.039,0 0.0586,0 -1.3282,16.328 -2.0508,32.809 -2.0586,49.43 L 212.844,740.68 c -2.375,-8.477 -3.567,-17.336 -3.43,-26.282 3.926,0.821 7.441,1.848 10.742,3.012 3.645,1.285 7.024,2.746 10.391,4.309 1.758,0.816 3.516,1.656 5.312,2.519 3.528,1.692 7.168,3.438 11.133,5.11 7.363,3.093 15.86,5.902 26.738,7.554 1.719,0.262 3.477,0.496 5.325,0.696 2.39,0.257 4.898,0.453 7.515,0.593 2.434,0.133 4.953,0.215 7.602,0.231 0.379,0.008 0.738,0.019 1.133,0.019 0.398,0 0.769,-0.011 1.16,-0.019 2.644,-0.016 5.176,-0.098 7.605,-0.231 2.805,-0.148 5.481,-0.371 8.02,-0.656 1.66,-0.187 3.262,-0.402 4.824,-0.637 11.301,-1.722 20.027,-4.691 27.598,-7.937 3.625,-1.555 6.992,-3.16 10.246,-4.723 1.707,-0.824 3.394,-1.633 5.086,-2.418 3.449,-1.601 6.914,-3.105 10.652,-4.422 3.313,-1.168 6.84,-2.195 10.774,-3.011 0.117,8.586 -0.95,17.082 -3.125,25.254 l 110.585,35.117 10.801,47.547 -131.277,-59.371 c -2.856,4.664 -6.086,9.078 -9.797,13.074 -2.07,2.277 -4.277,4.437 -6.594,6.472 l 183.039,238.7 h 267.95 c 8.418,14.52 32.597,45.77 84.668,45.77 73.378,0 104.257,-89.677 117.25,-164.903 9.66,-56.035 12.19,-111.676 7.67,-165.559 z M 320.984,1021.18 H 465.938 L 331.016,796.063 c -7.325,3.414 -15.11,5.75 -23.067,6.949 z m 682.426,-4.84 c -11.613,23.18 -25.715,41.81 -41.926,55.36 -21.308,17.82 -46.882,27.24 -73.964,27.24 -49.852,0 -80.829,-22.83 -98.028,-41.98 l -3.398,-3.78 H 303.789 l -0.801,-2.65 -21.972,-72.483 c -1.836,-7.133 -4.434,-13.902 -7.571,-20.328 l 9.25,-154.723 c -7.968,-1.203 -15.754,-3.504 -23.078,-6.91 l -61.902,103.273 c -6.848,-1.363 -13.887,-2.152 -21.074,-2.152 -10,0 -19.676,1.402 -28.868,3.961 l 91.028,-118.719 c -2.571,-2.261 -5.039,-4.636 -7.317,-7.199 -3.183,-3.539 -5.937,-7.43 -8.464,-11.465 L 72.4609,834.133 c 1.5938,22.504 4.3555,45.168 8.2813,67.914 2.5117,14.531 5.293,27.637 8.4687,40.023 -9.7265,13.473 -16.4375,29.262 -19.0937,46.383 C 61.5039,965.27 54.582,938.57 49.2188,907.488 32.7461,812.117 35.9297,717.105 58.4102,632.715 76.9922,562.984 107.363,495.277 148.914,430.668 c 0.168,-0.262 0.356,-0.527 0.52,-0.789 3.105,-4.816 6.25,-9.602 9.472,-14.375 0.496,-0.734 1.016,-1.457 1.504,-2.188 2.949,-4.328 5.918,-8.644 8.965,-12.941 0.93,-1.316 1.895,-2.613 2.844,-3.934 2.676,-3.73 5.347,-7.472 8.101,-11.179 1.496,-2.012 3.059,-4.012 4.582,-6.032 2.254,-2.98 4.493,-5.968 6.797,-8.949 C 270.859,268.43 379.609,175.609 514.91,94.4102 l 27.844,-16.6993 v 0 0 l 27.832,16.6993 c 21.914,13.1488 43.059,26.6408 63.555,40.3908 42.812,28.699 82.605,58.64 119.121,89.801 49.492,42.25 93.008,86.679 130.41,133.007 3.406,4.219 6.836,8.43 10.137,12.672 0.039,0.047 0.058,0.09 0.097,0.141 3.555,4.566 7.032,9.156 10.469,13.769 1.152,1.559 2.285,3.11 3.418,4.661 2.324,3.16 4.609,6.308 6.875,9.476 1.277,1.805 2.559,3.61 3.828,5.406 2.207,3.157 4.363,6.309 6.524,9.473 1.125,1.652 2.265,3.301 3.378,4.961 2.879,4.297 5.704,8.613 8.477,12.941 1.543,2.403 3.047,4.813 4.563,7.227 1.414,2.246 2.808,4.492 4.187,6.746 1.609,2.617 3.203,5.246 4.766,7.883 1.23,2.039 2.422,4.09 3.613,6.133 1.601,2.734 3.203,5.457 4.766,8.203 v 0.008 c 30.339,53.418 53.23,108.742 68.33,165.406 22.48,84.39 25.66,179.402 9.19,274.773 -7.66,44.364 -18.41,79.961 -32.88,108.852" /><path
         id="path52"
         style="fill:#ffffff;fill-opacity:1;fill-rule:nonzero;stroke:none"
         d="m 241.738,1121.87 h 15.45 v -16.31 l -93.614,-127.861 -9.011,6.141 z M 176.641,920.063 c 2.832,0 5.625,0.175 8.398,0.449 35.266,3.48 65.02,28.558 73.899,63.433 l 24.949,82.345 v 81.33 h -82.539 c 0,0 -81.035,-79.12 -82.84,-80.82 -17.121,-16.25 -26.7971,-38.55 -26.7971,-61.82 0,-1.93 0.1563,-3.82 0.2813,-5.734 2.9805,-44.148 39.7458,-79.183 84.6488,-79.183" /><path
         id="path54"
         style="fill:#ffffff;fill-opacity:1;fill-rule:nonzero;stroke:none"
         d="m 914.102,671.672 c 3.066,0 5.578,2.562 5.578,5.723 0,3.226 -2.512,5.859 -5.578,5.859 -3.079,0 -5.586,-2.633 -5.586,-5.859 0,-3.161 2.507,-5.723 5.586,-5.723" /><path
         id="path56"
         style="fill:#ffffff;fill-opacity:1;fill-rule:nonzero;stroke:none"
         d="m 944.59,895.641 h -26.094 l -8.066,24.812 h -4.336 l -8.067,-24.812 h -26.093 l -1.348,-4.137 21.113,-15.336 -8.066,-24.816 3.515,-2.559 21.114,15.344 21.113,-15.344 3.516,2.559 -8.067,24.816 21.114,15.336 -1.348,4.137" /><path
         id="path58"
         style="fill:#ffffff;fill-opacity:1;fill-rule:nonzero;stroke:none"
         d="m 914.102,696.262 c 2.793,0 5.078,2.336 5.078,5.218 0,2.883 -2.285,5.223 -5.078,5.223 -2.801,0 -5.079,-2.34 -5.079,-5.223 0,-2.882 2.278,-5.218 5.079,-5.218" /><path
         id="path60"
         style="fill:#ffffff;fill-opacity:1;fill-rule:nonzero;stroke:none"
         d="m 825.273,679.234 c 0,-4.445 3.594,-8.062 8,-8.062 4.356,0 7.774,3.539 7.774,8.062 0,4.438 -3.418,7.914 -7.774,7.914 -4.406,0 -8,-3.55 -8,-7.914" /><path
         id="path62"
         style="fill:#ffffff;fill-opacity:1;fill-rule:nonzero;stroke:none"
         d="m 750.313,671.672 c 3.078,0 5.578,2.562 5.578,5.723 0,3.226 -2.5,5.859 -5.578,5.859 -3.079,0 -5.586,-2.633 -5.586,-5.859 0,-3.161 2.507,-5.723 5.586,-5.723" /><path
         id="path64"
         style="fill:#ffffff;fill-opacity:1;fill-rule:nonzero;stroke:none"
         d="m 750.313,696.262 c 2.792,0 5.078,2.336 5.078,5.218 0,2.883 -2.286,5.223 -5.078,5.223 -2.793,0 -5.079,-2.34 -5.079,-5.223 0,-2.882 2.286,-5.218 5.079,-5.218" /><path
         id="path66"
         style="fill:#ffffff;fill-opacity:1;fill-rule:nonzero;stroke:none"
         d="m 708.516,895.641 h -26.094 l -8.067,24.812 H 670 l -8.059,-24.812 h -26.089 l -1.348,-4.137 21.109,-15.336 -8.062,-24.816 3.523,-2.559 21.106,15.344 21.113,-15.344 3.516,2.559 -8.071,24.816 21.117,15.336 -1.339,4.137" /><path
         id="path68"
         style="fill:#ffffff;fill-opacity:1;fill-rule:nonzero;stroke:none"
         d="m 826.555,938.762 h -26.094 l -8.066,24.816 h -4.348 l -8.067,-24.816 h -26.093 l -1.336,-4.137 21.101,-15.34 -8.054,-24.812 3.511,-2.555 21.106,15.34 21.113,-15.34 3.516,2.555 -8.059,24.812 21.106,15.34 -1.336,4.137" /><path
         id="path70"
         style="fill:#ffffff;fill-opacity:1;fill-rule:nonzero;stroke:none"
         d="m 1474.41,878.977 c 0,123.953 -27.47,171.523 -87.77,171.523 -60.97,0 -88.44,-47.57 -88.44,-171.523 0,-123.286 27.47,-171.528 88.44,-171.528 60.3,0 87.77,48.242 87.77,171.528 z m -276.71,0 c 0,125.963 68.34,203.683 188.94,203.683 119.93,0 188.28,-77.72 188.28,-203.683 0,-125.965 -68.35,-203.684 -188.28,-203.684 -120.6,0 -188.94,77.719 -188.94,203.684" /><path
         id="path72"
         style="fill:#ffffff;fill-opacity:1;fill-rule:nonzero;stroke:none"
         d="m 1763.85,702.766 -8.71,-20.774 h -163.48 v 18.762 l 27.46,12.059 v 182.914 l -28.13,44.218 v 7.375 l 101.17,33.5 h 14.07 l -2.01,-68.343 h 2.67 c 13.4,34.168 39.54,68.343 83.75,68.343 35.52,0 56.96,-20.769 56.96,-53.601 0,-30.153 -20.77,-48.914 -46.23,-48.914 -28.81,0 -46.23,19.429 -46.23,46.898 -16.75,-7.367 -32.84,-22.777 -48.25,-42.879 V 715.492 l 56.96,-12.726" /><path
         id="path74"
         style="fill:#ffffff;fill-opacity:1;fill-rule:nonzero;stroke:none"
         d="m 1927.99,865.574 h 94.47 c 1.35,5.364 2.01,14.074 2.01,24.793 0,31.488 -8.71,59.629 -40.19,59.629 -29.48,0 -50.93,-27.469 -56.29,-84.422 z m 83.75,-134.004 c 30.15,0 47.58,7.375 72.36,26.133 l 12.74,-14.738 c -21.45,-48.242 -62.32,-67.672 -119.26,-67.672 -76.39,0 -136.69,48.91 -136.69,148.738 0,101.172 68.35,156.789 149.41,156.789 65.67,0 111.22,-38.191 111.22,-108.547 0,-10.714 -0.66,-25.457 -3.35,-38.187 h -171.52 c 1.34,-60.973 28.15,-102.516 85.09,-102.516" /><path
         id="path76"
         style="fill:#ffffff;fill-opacity:1;fill-rule:nonzero;stroke:none"
         d="m 2250.92,950.668 c -34.16,0 -40.2,-26.133 -40.2,-69.684 0,-42.879 6.04,-69.011 40.2,-69.011 34.84,0 40.88,26.132 40.88,69.011 0,43.551 -6.04,69.684 -40.88,69.684 z m -69.01,-335.68 c 0,-35.511 26.14,-52.258 72.37,-52.258 52.93,0 93.12,14.735 93.12,56.954 0,25.457 -13.4,40.867 -52.93,40.867 h -84.41 c -17.42,-9.379 -28.15,-24.121 -28.15,-45.563 z m 134.01,125.293 c 63.65,0 103.85,-30.816 103.85,-95.14 0,-81.739 -81.08,-111.895 -169.52,-111.895 -81.73,0 -142.05,18.77 -142.05,70.352 0,38.195 30.16,55.617 75.73,62.316 v 2.008 c -38.2,4.691 -59.63,26.801 -59.63,61.644 0,34.836 26.12,55.61 62.97,62.977 -38.19,13.398 -62.31,40.199 -62.31,83.75 0,58.965 44.22,104.527 128.64,104.527 34.84,0 75.72,-6.703 107.2,-22.113 -2.67,4.023 -4.01,9.379 -4.01,16.082 0,21.441 16.08,34.841 36.84,34.841 21.45,0 36.86,-14.743 36.86,-38.189 0,-25.464 -16.76,-39.531 -40.88,-39.531 -17.41,0 -33.5,6.699 -52.93,14.067 v -6.7 c 23.46,-10.718 39.53,-33.5 39.53,-63.652 0,-64.32 -64.32,-93.129 -123.28,-93.129 -14.74,0 -28.14,1.336 -40.87,4.688 -14.07,-4.688 -24.79,-12.063 -24.79,-26.797 0,-13.407 8.04,-20.106 24.12,-20.106 h 104.53" /><path
         id="path78"
         style="fill:#ffffff;fill-opacity:1;fill-rule:nonzero;stroke:none"
         d="m 2554.43,706.113 c 44.89,0 56.96,44.219 56.96,121.946 0,77.718 -12.07,121.937 -56.96,121.937 -44.89,0 -56.95,-44.219 -56.95,-121.937 0,-77.727 12.06,-121.946 56.95,-121.946 z m 0,-30.82 c -90.45,0 -150.08,51.594 -150.08,152.766 0,101.171 59.63,152.761 150.08,152.761 90.45,0 150.08,-51.59 150.08,-152.761 0,-101.172 -59.63,-152.766 -150.08,-152.766" /><path
         id="path80"
         style="fill:#ffffff;fill-opacity:1;fill-rule:nonzero;stroke:none"
         d="m 3056.26,701.422 -8.71,-19.43 h -146.73 v 18.762 l 27.46,12.726 v 146.067 c 0,43.551 -22.77,58.289 -47.57,58.289 -22.78,0 -40.87,-11.391 -52.93,-22.777 V 714.156 l 39.53,-12.734 -8.71,-19.43 h -146.06 v 18.762 l 27.47,12.059 v 183.585 l -28.13,44.215 v 7.375 l 101.17,32.832 h 14.06 l -2.01,-58.293 h 2.68 c 24.12,38.192 57.63,58.293 102.51,58.293 48.91,0 86.44,-34.175 86.44,-102.515 V 714.156 l 39.53,-12.734" /><path
         id="path82"
         style="fill:#ffffff;fill-opacity:1;fill-rule:nonzero;stroke:none"
         d="m 3326.25,761.723 c 0,36.183 -18.77,53.605 -62.99,71.019 l -48.24,20.106 c -49.57,20.097 -78.39,53.597 -78.39,115.238 0,79.734 61.65,114.574 126.63,114.574 35.51,0 64.33,-8.04 85.1,-14.74 l 32.83,14.74 6.03,-111.219 -18.1,-4.023 -32.15,42.212 c -20.1,28.14 -40.88,42.88 -75.72,42.88 -31.48,0 -52.93,-20.1 -52.93,-50.92 0,-30.824 14.07,-48.914 54.28,-64.992 l 50.25,-20.098 c 62.98,-24.797 90.45,-60.973 90.45,-122.613 0,-80.407 -60.98,-118.594 -132.67,-118.594 -48.24,0 -73.7,12.062 -92.46,21.441 l -36.18,-21.441 -11.38,127.301 20.76,4.023 32.83,-47.574 c 22.11,-34.172 46.9,-52.262 85.1,-52.262 35.5,0 56.95,20.106 56.95,54.942" /><path
         id="path84"
         style="fill:#ffffff;fill-opacity:1;fill-rule:nonzero;stroke:none"
         d="m 3408.63,961.387 107.21,91.793 h 20.1 v -79.063 h 88.44 l -4.69,-34.84 h -83.08 V 781.152 c 0,-38.855 14.74,-53.597 41.53,-53.597 17.43,0 30.82,4.015 49.59,14.066 l 6.7,-16.078 c -20.77,-31.488 -54.27,-50.25 -97.14,-50.25 -52.27,0 -88.45,26.129 -88.45,94.473 v 169.511 h -40.21 v 22.11" /><path
         id="path86"
         style="fill:#ffffff;fill-opacity:1;fill-rule:nonzero;stroke:none"
         d="m 3785.18,812.648 c -39.54,0 -62.32,-10.054 -62.32,-45.562 0,-24.789 14.74,-41.543 38.19,-41.543 14.74,0 26.8,3.348 38.86,14.07 v 73.035 z m 102.51,-66.335 c 0,-30.153 10.71,-36.848 42.2,-33.5 l 2.01,-13.399 c -16.74,-16.086 -38.85,-24.121 -70.35,-24.121 -28.81,0 -52.93,12.062 -58.29,42.883 l -2.01,0.668 c -14.06,-30.153 -44.88,-43.551 -81.07,-43.551 -44.89,0 -81.74,24.789 -81.74,80.398 0,58.961 46.9,87.778 121.27,87.778 14.08,0 29.49,-2.684 40.2,-5.364 v 25.458 c 0,38.863 -24.79,58.292 -64.32,58.292 -28.14,0 -51.59,-5.355 -79.73,-20.097 l -8.05,19.43 c 28.82,38.863 75.05,59.632 129.99,59.632 55.62,0 109.89,-24.797 109.89,-106.535 V 746.313" /><path
         id="path88"
         style="fill:#ffffff;fill-opacity:1;fill-rule:nonzero;stroke:none"
         d="m 3899.73,961.387 107.2,91.793 h 20.1 v -79.063 h 88.44 l -4.69,-34.84 H 4027.7 V 781.152 c 0,-38.855 14.74,-53.597 41.54,-53.597 17.42,0 30.82,4.015 49.58,14.066 l 6.71,-16.078 c -20.78,-31.488 -54.28,-50.25 -97.16,-50.25 -52.26,0 -88.45,26.129 -88.45,94.473 v 169.511 h -40.19 v 22.11" /><path
         id="path90"
         style="fill:#ffffff;fill-opacity:1;fill-rule:nonzero;stroke:none"
         d="m 4206.58,865.574 h 94.47 c 1.34,5.364 2.02,14.074 2.02,24.793 0,31.488 -8.71,59.629 -40.21,59.629 -29.48,0 -50.92,-27.469 -56.28,-84.422 z m 83.75,-134.004 c 30.16,0 47.58,7.375 72.37,26.133 l 12.73,-14.738 c -21.45,-48.242 -62.31,-67.672 -119.27,-67.672 -76.37,0 -136.69,48.91 -136.69,148.738 0,101.172 68.35,156.789 149.42,156.789 65.66,0 111.23,-38.191 111.23,-108.547 0,-10.714 -0.68,-25.457 -3.36,-38.187 h -171.53 c 1.35,-60.973 28.15,-102.516 85.1,-102.516" /></g></g></svg>